<?xml version="1.0" encoding="UTF-8"?>

<svg class="village-svg" viewBox="0 0 1400 520" xmlns="http://www.w3.org/2000/svg" preserveAspectRatio="xMidYMax slice">

  
  <path d="M0 380 Q 200 320 440 360 T 900 340 T 1400 370 L 1400 520 L 0 520 Z" fill="#8ecf5a" opacity=".55"></path>
  <path d="M0 410 Q 260 360 560 390 T 1100 385 T 1400 400 L 1400 520 L 0 520 Z" fill="#7ec04b" opacity=".75"></path>

  
  <g class="tree tree-1">
    <rect x="74" y="360" width="12" height="40" fill="#5a3a1f"></rect>
    <circle cx="80" cy="348" r="34" fill="#3f8c3b"></circle>
    <circle cx="62" cy="340" r="22" fill="#4ea23c"></circle>
    <circle cx="98" cy="340" r="22" fill="#4ea23c"></circle>
  </g>
  <g class="tree tree-2">
    <rect x="164" y="380" width="8" height="28" fill="#5a3a1f"></rect>
    <circle cx="168" cy="372" r="22" fill="#3f8c3b"></circle>
  </g>
  <g class="tree tree-3">
    <rect x="1310" y="360" width="12" height="40" fill="#5a3a1f"></rect>
    <circle cx="1316" cy="348" r="32" fill="#3f8c3b"></circle>
    <circle cx="1298" cy="342" r="20" fill="#4ea23c"></circle>
    <circle cx="1334" cy="342" r="20" fill="#4ea23c"></circle>
  </g>

  
  <g class="camptent ct1">
    <polygon points="240,430 310,350 380,430" fill="#3fa34d" stroke="#0f2a1a" stroke-width="3"></polygon>
    <polygon points="295,430 310,380 325,430" fill="#0f2a1a"></polygon>
    <line x1="310" y1="350" x2="310" y2="335" stroke="#0f2a1a" stroke-width="2"></line>
    <circle cx="310" cy="332" r="3" fill="#ff6b3d"></circle>
    <line x1="240" y1="430" x2="220" y2="440" stroke="#0f2a1a" stroke-width="1.5"></line>
    <line x1="380" y1="430" x2="400" y2="440" stroke="#0f2a1a" stroke-width="1.5"></line>
  </g>
  <g class="camptent ct2">
    <polygon points="150,448 200,390 250,448" fill="#ff6b3d" stroke="#0f2a1a" stroke-width="3"></polygon>
    <polygon points="190,448 200,415 210,448" fill="#0f2a1a"></polygon>
    <line x1="200" y1="390" x2="200" y2="378" stroke="#0f2a1a" stroke-width="2"></line>
    <circle cx="200" cy="375" r="2.5" fill="#ffd36b"></circle>
  </g>

  
  <g class="bigtent">
    <path d="M 500 430 L 500 330 Q 500 220 700 220 Q 900 220 900 330 L 900 430 Z" fill="#fffef5" stroke="#0f2a1a" stroke-width="3.5"></path>
    <path d="M 500 330 Q 500 220 700 220 Q 900 220 900 330" fill="none" stroke="#ff6b3d" stroke-width="3" opacity=".7"></path>
    <path d="M 520 330 Q 520 240 700 240 Q 880 240 880 330" fill="none" stroke="#bfe3f5" stroke-width="2" opacity=".7"></path>
    <path d="M 660 430 L 660 370 Q 660 340 700 340 Q 740 340 740 370 L 740 430 Z" fill="#0f2a1a"></path>
    <g class="flags">
      <circle cx="700" cy="215" r="4" fill="#0f2a1a"></circle>
      <line x1="700" y1="218" x2="700" y2="180" stroke="#0f2a1a" stroke-width="2"></line>
      <polygon points="700,180 730,190 700,200" fill="#ff6b3d"></polygon>
    </g>
    <g class="bunting" stroke="#0f2a1a" stroke-width="1.5" fill="none">
      <path d="M 500 330 Q 700 355 900 330"></path>
    </g>
    <g class="bunt-flags">
      <polygon points="540,338 550,338 545,350" fill="#ff6b3d"></polygon>
      <polygon points="590,344 600,344 595,356" fill="#ffd36b"></polygon>
      <polygon points="640,348 650,348 645,360" fill="#bfe3f5"></polygon>
      <polygon points="690,350 700,350 695,362" fill="#3fa34d"></polygon>
      <polygon points="740,348 750,348 745,360" fill="#e8488a"></polygon>
      <polygon points="790,344 800,344 795,356" fill="#ffd36b"></polygon>
      <polygon points="840,338 850,338 845,350" fill="#ff6b3d"></polygon>
    </g>
    <g class="bigtent-sign">
      <rect x="670" y="300" width="60" height="26" rx="4" fill="#ffd36b" stroke="#0f2a1a" stroke-width="2"></rect>
      <text x="700" y="320" text-anchor="middle" font-family="&#39;Space Grotesk&#39;,sans-serif" font-size="16" font-weight="700" fill="#0f2a1a">TAB</text>
    </g>
  </g>

  
  <g class="camptent ct3">
    <polygon points="960,448 1020,378 1080,448" fill="#5fb0dc" stroke="#0f2a1a" stroke-width="3"></polygon>
    <polygon points="1012,448 1020,408 1028,448" fill="#0f2a1a"></polygon>
    <line x1="1020" y1="378" x2="1020" y2="362" stroke="#0f2a1a" stroke-width="2"></line>
    <circle cx="1020" cy="360" r="3" fill="#e8488a"></circle>
  </g>
  <g class="camptent ct4">
    <polygon points="1090,430 1150,352 1210,430" fill="#ffd36b" stroke="#0f2a1a" stroke-width="3"></polygon>
    <polygon points="1140,430 1150,385 1160,430" fill="#0f2a1a"></polygon>
    <line x1="1150" y1="352" x2="1150" y2="338" stroke="#0f2a1a" stroke-width="2"></line>
    <circle cx="1150" cy="335" r="3" fill="#3fa34d"></circle>
  </g>
  <g class="camptent ct5" opacity=".85">
    <polygon points="1240,420 1280,370 1320,420" fill="#e8488a" stroke="#0f2a1a" stroke-width="2.5"></polygon>
  </g>

  
  <g class="person p1">
    <circle cx="430" cy="398" r="9" fill="#0f2a1a"></circle>
    <rect x="424" y="405" width="12" height="18" rx="3" fill="#ff6b3d"></rect>
    <line x1="424" y1="412" x2="416" y2="420" stroke="#0f2a1a" stroke-width="3" stroke-linecap="round"></line>
    <line x1="436" y1="412" x2="444" y2="418" stroke="#0f2a1a" stroke-width="3" stroke-linecap="round"></line>
    <line x1="427" y1="423" x2="423" y2="432" stroke="#0f2a1a" stroke-width="3" stroke-linecap="round"></line>
    <line x1="433" y1="423" x2="437" y2="432" stroke="#0f2a1a" stroke-width="3" stroke-linecap="round"></line>
  </g>
  <g class="person p2">
    <circle cx="700" cy="400" r="10" fill="#0f2a1a"></circle>
    <rect x="693" y="408" width="14" height="20" rx="3" fill="#5fb0dc"></rect>
    <line x1="693" y1="414" x2="685" y2="402" stroke="#0f2a1a" stroke-width="3" stroke-linecap="round" class="wave-arm"></line>
    <line x1="707" y1="414" x2="715" y2="420" stroke="#0f2a1a" stroke-width="3" stroke-linecap="round"></line>
    <line x1="696" y1="428" x2="693" y2="438" stroke="#0f2a1a" stroke-width="3" stroke-linecap="round"></line>
    <line x1="704" y1="428" x2="707" y2="438" stroke="#0f2a1a" stroke-width="3" stroke-linecap="round"></line>
  </g>
  <g class="person p3">
    <circle cx="830" cy="405" r="9" fill="#0f2a1a"></circle>
    <rect x="824" y="412" width="12" height="18" rx="3" fill="#e8488a"></rect>
    <line x1="824" y1="419" x2="816" y2="412" stroke="#0f2a1a" stroke-width="3" stroke-linecap="round"></line>
    <line x1="836" y1="419" x2="844" y2="412" stroke="#0f2a1a" stroke-width="3" stroke-linecap="round"></line>
    <line x1="827" y1="430" x2="823" y2="440" stroke="#0f2a1a" stroke-width="3" stroke-linecap="round"></line>
    <line x1="833" y1="430" x2="837" y2="440" stroke="#0f2a1a" stroke-width="3" stroke-linecap="round"></line>
  </g>
  <g class="person p4">
    <circle cx="280" cy="432" r="8" fill="#0f2a1a"></circle>
    <rect x="274" y="438" width="12" height="14" rx="3" fill="#ffd36b"></rect>
    <line x1="274" y1="446" x2="266" y2="454" stroke="#0f2a1a" stroke-width="2.5" stroke-linecap="round"></line>
    <line x1="286" y1="446" x2="294" y2="454" stroke="#0f2a1a" stroke-width="2.5" stroke-linecap="round"></line>
  </g>
  <g class="person p5 runner">
    <circle cx="1100" cy="410" r="7" fill="#0f2a1a"></circle>
    <rect x="1095" y="416" width="10" height="14" rx="2" fill="#3fa34d"></rect>
    <line x1="1095" y1="422" x2="1088" y2="414" stroke="#0f2a1a" stroke-width="2.5" stroke-linecap="round"></line>
    <line x1="1105" y1="422" x2="1112" y2="428" stroke="#0f2a1a" stroke-width="2.5" stroke-linecap="round"></line>
    <line x1="1098" y1="430" x2="1094" y2="438" stroke="#0f2a1a" stroke-width="2.5" stroke-linecap="round"></line>
    <line x1="1102" y1="430" x2="1106" y2="438" stroke="#0f2a1a" stroke-width="2.5" stroke-linecap="round"></line>
    <circle cx="1080" cy="390" r="8" fill="#ff6b3d" stroke="#0f2a1a" stroke-width="1.5"></circle>
    <line x1="1080" y1="398" x2="1088" y2="414" stroke="#0f2a1a" stroke-width="1"></line>
  </g>
  <g class="person p6">
    <circle cx="1170" cy="420" r="7" fill="#0f2a1a"></circle>
    <rect x="1165" y="426" width="10" height="14" rx="2" fill="#5fb0dc"></rect>
    <line x1="1165" y1="432" x2="1158" y2="438" stroke="#0f2a1a" stroke-width="2.5" stroke-linecap="round"></line>
    <line x1="1175" y1="432" x2="1182" y2="438" stroke="#0f2a1a" stroke-width="2.5" stroke-linecap="round"></line>
  </g>

  
  <g class="ball">
    <circle cx="480" cy="430" r="8" fill="#ffd36b" stroke="#0f2a1a" stroke-width="2"></circle>
    <path d="M472 430 Q 480 422 488 430" stroke="#0f2a1a" stroke-width="1.5" fill="none"></path>
  </g>

  
  <g class="bird b1">
    <path d="M 0 0 Q 4 -6 8 0 M 8 0 Q 12 -6 16 0" stroke="#0f2a1a" stroke-width="2" fill="none" stroke-linecap="round"></path>
  </g>
  <g class="bird b2">
    <path d="M 0 0 Q 3 -5 6 0 M 6 0 Q 9 -5 12 0" stroke="#0f2a1a" stroke-width="1.8" fill="none" stroke-linecap="round"></path>
  </g>

  
  <g class="bbq">
    <rect x="108" y="430" width="32" height="8" fill="#0f2a1a"></rect>
    <rect x="116" y="438" width="4" height="12" fill="#0f2a1a"></rect>
    <rect x="128" y="438" width="4" height="12" fill="#0f2a1a"></rect>
  </g>
  <g class="smoke">
    <circle class="sm sm1" cx="124" cy="420" r="6" fill="#fffef5" opacity=".85"></circle>
    <circle class="sm sm2" cx="124" cy="420" r="5" fill="#fffef5" opacity=".7"></circle>
    <circle class="sm sm3" cx="124" cy="420" r="7" fill="#fffef5" opacity=".6"></circle>
  </g>

</svg>