<?xml version="1.0" encoding="UTF-8" standalone="no"?>
<svg class="village-svg" viewBox="0 0 1400 520" preserveAspectRatio="xMidYMax slice" version="1.1" id="svg55" xmlns:sodipodi-0.dtd="http://sodipodi.sourceforge.net/DTD/sodipodi-0.dtd" sodipodi-0.dtd:docname="hero-village2.svg" xmlns:inkscape="http://www.inkscape.org/namespaces/inkscape" inkscape:version="1.4.3 (fcd0343856, 2026-01-01)" xmlns:inkscape="http://www.inkscape.org/namespaces/inkscape" xmlns:sodipodi="http://sodipodi.sourceforge.net/DTD/sodipodi-0.dtd" xmlns="http://www.w3.org/2000/svg" xmlns:svg="http://www.w3.org/2000/svg">
  <defs id="defs55"></defs>
  <namedview id="namedview55" pagecolor="#ffffff" bordercolor="#000000" borderopacity="0.25" inkscape:showpageshadow="2" inkscape:pageopacity="0.0" inkscape:pagecheckerboard="0" inkscape:deskcolor="#d1d1d1" inkscape:zoom="0.5" inkscape:cx="912" inkscape:cy="131" inkscape:window-width="1874" inkscape:window-height="1011" inkscape:window-x="0" inkscape:window-y="0" inkscape:window-maximized="1" inkscape:current-layer="svg55"></namedview>
  <path d="M0 380 Q 200 320 440 360 T 900 340 T 1400 370 L 1400 520 L 0 520 Z" fill="#8ecf5a" opacity=".55" id="path1"></path>
  <path d="M0 410 Q 260 360 560 390 T 1100 385 T 1400 400 L 1400 520 L 0 520 Z" fill="#7ec04b" opacity=".75" id="path2"></path>
  <g class="camptent ct5" opacity="0.85" id="g28" style="display:inline" transform="translate(-45.480069,-31.836048)">
    <polygon points="1240,420 1280,370 1320,420 " fill="#e8488a" stroke="#0f2a1a" stroke-width="2.5" id="polygon28"></polygon>
  </g>
  <g class="tree tree-1" id="g4">
    <rect x="74" y="360" width="12" height="40" fill="#5a3a1f" id="rect2"></rect>
    <circle cx="80" cy="348" r="34" fill="#3f8c3b" id="circle2"></circle>
    <circle cx="62" cy="340" r="22" fill="#4ea23c" id="circle3"></circle>
    <circle cx="98" cy="340" r="22" fill="#4ea23c" id="circle4"></circle>
  </g>
  <g class="tree tree-2" id="g5" transform="translate(184.37979,-11.79173)">
    <rect x="164" y="380" width="8" height="28" fill="#5a3a1f" id="rect4"></rect>
    <circle cx="168" cy="372" r="22" fill="#3f8c3b" id="circle5"></circle>
  </g>
  <g class="tree tree-3" id="g8">
    <rect x="1310" y="360" width="12" height="40" fill="#5a3a1f" id="rect5"></rect>
    <circle cx="1316" cy="348" r="32" fill="#3f8c3b" id="circle6"></circle>
    <circle cx="1298" cy="342" r="20" fill="#4ea23c" id="circle7"></circle>
    <circle cx="1334" cy="342" r="20" fill="#4ea23c" id="circle8"></circle>
  </g>
  <g class="camptent ct1" id="g11" transform="translate(971.75747,21.224032)">
    <polygon points="310,350 380,430 240,430 " fill="#3fa34d" stroke="#0f2a1a" stroke-width="3" id="polygon8"></polygon>
    <polygon points="310,380 325,430 295,430 " fill="#0f2a1a" id="polygon9"></polygon>
    <line x1="310" y1="350" x2="310" y2="335" stroke="#0f2a1a" stroke-width="2" id="line9"></line>
    <circle cx="310" cy="332" r="3" fill="#ff6b3d" id="circle9"></circle>
    <line x1="240" y1="430" x2="220" y2="440" stroke="#0f2a1a" stroke-width="1.5" id="line10"></line>
    <line x1="380" y1="430" x2="400" y2="440" stroke="#0f2a1a" stroke-width="1.5" id="line11"></line>
  </g>
  <g class="camptent ct2" id="g12" transform="translate(761.03315,-19.70803)">
    <polygon points="200,390 250,448 150,448 " fill="#ff6b3d" stroke="#0f2a1a" stroke-width="3" id="polygon11"></polygon>
    <polygon points="200,415 210,448 190,448 " fill="#0f2a1a" id="polygon12"></polygon>
    <line x1="200" y1="390" x2="200" y2="378" stroke="#0f2a1a" stroke-width="2" id="line12"></line>
    <circle cx="200" cy="375" r="2.5" fill="#ffd36b" id="circle12"></circle>
  </g>
  <g class="bigtent" id="g24" style="display:inline">
    <path d="M 500,430 V 330 q 0,-110 200,-110 200,0 200,110 v 100 z" fill="#fffef5" stroke="#0f2a1a" stroke-width="3.5" id="path12"></path>
    <path d="m 500,330 q 0,-110 200,-110 200,0 200,110" fill="none" stroke="#ff6b3d" stroke-width="3" opacity="0.7" id="path13"></path>
    <path d="m 520,330 q 0,-90 180,-90 180,0 180,90" fill="none" stroke="#bfe3f5" stroke-width="2" opacity="0.7" id="path14"></path>
    <path d="m 660,430 v -60 q 0,-30 40,-30 40,0 40,30 v 60 z" fill="#0f2a1a" id="path15"></path>
    <g class="flags" id="g15">
      <circle cx="700" cy="215" r="4" fill="#0f2a1a" id="circle15"></circle>
      <line x1="700" y1="218" x2="700" y2="180" stroke="#0f2a1a" stroke-width="2" id="line15"></line>
      <polygon points="730,190 700,200 700,180 " fill="#ff6b3d" id="polygon15"></polygon>
    </g>
    <g class="bunting" stroke="#0f2a1a" stroke-width="1.5" fill="none" id="g16">
      <path d="m 500,330 q 200,25 400,0" id="path16"></path>
    </g>
    <g class="bunt-flags" id="g22">
      <polygon points="550,338 545,350 540,338 " fill="#ff6b3d" id="polygon16"></polygon>
      <polygon points="600,344 595,356 590,344 " fill="#ffd36b" id="polygon17"></polygon>
      <polygon points="650,348 645,360 640,348 " fill="#bfe3f5" id="polygon18"></polygon>
      <polygon points="700,350 695,362 690,350 " fill="#3fa34d" id="polygon19"></polygon>
      <polygon points="750,348 745,360 740,348 " fill="#e8488a" id="polygon20"></polygon>
      <polygon points="800,344 795,356 790,344 " fill="#ffd36b" id="polygon21"></polygon>
      <polygon points="850,338 845,350 840,338 " fill="#ff6b3d" id="polygon22"></polygon>
    </g>
    <g class="bigtent-sign" id="g23">
      <rect x="670" y="300" width="60" height="26" rx="4" fill="#ffd36b" stroke="#0f2a1a" stroke-width="2" id="rect22"></rect>
      <text x="700" y="320" text-anchor="middle" font-family="&#39;Space Grotesk&#39;, sans-serif" font-size="16px" font-weight="700" fill="#0f2a1a" id="text22">TAB</text>
    </g>
  </g>
  <g class="camptent ct3" id="g25" style="display:inline" transform="translate(10.612016)">
    <polygon points="960,448 1020,378 1080,448 " fill="#5fb0dc" stroke="#0f2a1a" stroke-width="3" id="polygon24"></polygon>
    <polygon points="1012,448 1020,408 1028,448 " fill="#0f2a1a" id="polygon25"></polygon>
    <line x1="1020" y1="378" x2="1020" y2="362" stroke="#0f2a1a" stroke-width="2" id="line25"></line>
    <circle cx="1020" cy="360" r="3" fill="#e8488a" id="circle25"></circle>
  </g>
  <g class="camptent ct4" id="g27" style="display:inline">
    <polygon points="1150,352 1210,430 1090,430 " fill="#ffd36b" stroke="#0f2a1a" stroke-width="3" id="polygon26"></polygon>
    <polygon points="1150,385 1160,430 1140,430 " fill="#0f2a1a" id="polygon27"></polygon>
    <line x1="1150" y1="352" x2="1150" y2="338" stroke="#0f2a1a" stroke-width="2" id="line27"></line>
    <circle cx="1150" cy="335" r="3" fill="#3fa34d" id="circle27"></circle>
  </g>
  <g class="person p1" id="g31" style="display:inline">
    <circle cx="430" cy="398" r="9" fill="#0f2a1a" id="circle28"></circle>
    <rect x="424" y="405" width="12" height="18" rx="3" fill="#ff6b3d" id="rect28"></rect>
    <line x1="424" y1="412" x2="416" y2="420" stroke="#0f2a1a" stroke-width="3" stroke-linecap="round" id="line28"></line>
    <line x1="436" y1="412" x2="444" y2="418" stroke="#0f2a1a" stroke-width="3" stroke-linecap="round" id="line29"></line>
    <line x1="427" y1="423" x2="423" y2="432" stroke="#0f2a1a" stroke-width="3" stroke-linecap="round" id="line30"></line>
    <line x1="433" y1="423" x2="437" y2="432" stroke="#0f2a1a" stroke-width="3" stroke-linecap="round" id="line31"></line>
  </g>
  <g class="person p2" id="g35" style="display:inline" transform="translate(-122.79619,3.0320046)">
    <circle cx="700" cy="400" r="10" fill="#0f2a1a" id="circle31"></circle>
    <rect x="693" y="408" width="14" height="20" rx="3" fill="#5fb0dc" id="rect31"></rect>
    <line x1="693" y1="414" x2="685" y2="402" stroke="#0f2a1a" stroke-width="3" stroke-linecap="round" class="wave-arm" id="line32"></line>
    <line x1="707" y1="414" x2="715" y2="420" stroke="#0f2a1a" stroke-width="3" stroke-linecap="round" id="line33"></line>
    <line x1="696" y1="428" x2="693" y2="438" stroke="#0f2a1a" stroke-width="3" stroke-linecap="round" id="line34"></line>
    <line x1="704" y1="428" x2="707" y2="438" stroke="#0f2a1a" stroke-width="3" stroke-linecap="round" id="line35"></line>
  </g>
  <g class="person p3" id="g39">
    <circle cx="830" cy="405" r="9" fill="#0f2a1a" id="circle35"></circle>
    <rect x="824" y="412" width="12" height="18" rx="3" fill="#e8488a" id="rect35"></rect>
    <line x1="824" y1="419" x2="816" y2="412" stroke="#0f2a1a" stroke-width="3" stroke-linecap="round" id="line36"></line>
    <line x1="836" y1="419" x2="844" y2="412" stroke="#0f2a1a" stroke-width="3" stroke-linecap="round" id="line37"></line>
    <line x1="827" y1="430" x2="823" y2="440" stroke="#0f2a1a" stroke-width="3" stroke-linecap="round" id="line38"></line>
    <line x1="833" y1="430" x2="837" y2="440" stroke="#0f2a1a" stroke-width="3" stroke-linecap="round" id="line39"></line>
  </g>
  <g class="person p5 runner" id="g46" transform="translate(18.192027,34.868053)">
    <circle cx="1100" cy="410" r="7" fill="#0f2a1a" id="circle41"></circle>
    <rect x="1095" y="416" width="10" height="14" rx="2" fill="#3fa34d" id="rect41"></rect>
    <line x1="1095" y1="422" x2="1088" y2="414" stroke="#0f2a1a" stroke-width="2.5" stroke-linecap="round" id="line42"></line>
    <line x1="1105" y1="422" x2="1112" y2="428" stroke="#0f2a1a" stroke-width="2.5" stroke-linecap="round" id="line43"></line>
    <line x1="1098" y1="430" x2="1094" y2="438" stroke="#0f2a1a" stroke-width="2.5" stroke-linecap="round" id="line44"></line>
    <line x1="1102" y1="430" x2="1106" y2="438" stroke="#0f2a1a" stroke-width="2.5" stroke-linecap="round" id="line45"></line>
    <circle cx="1080" cy="390" r="8" fill="#ff6b3d" stroke="#0f2a1a" stroke-width="1.5" id="circle45"></circle>
    <line x1="1080" y1="398" x2="1088" y2="414" stroke="#0f2a1a" stroke-width="1" id="line46"></line>
  </g>
  <g class="person p6" id="g48">
    <circle cx="1170" cy="420" r="7" fill="#0f2a1a" id="circle46"></circle>
    <rect x="1165" y="426" width="10" height="14" rx="2" fill="#5fb0dc" id="rect46"></rect>
    <line x1="1165" y1="432" x2="1158" y2="438" stroke="#0f2a1a" stroke-width="2.5" stroke-linecap="round" id="line47"></line>
    <line x1="1175" y1="432" x2="1182" y2="438" stroke="#0f2a1a" stroke-width="2.5" stroke-linecap="round" id="line48"></line>
  </g>
  <g class="ball" id="g49">
    <circle cx="480" cy="430" r="8" fill="#ffd36b" stroke="#0f2a1a" stroke-width="2" id="circle48"></circle>
    <path d="M472 430 Q 480 422 488 430" stroke="#0f2a1a" stroke-width="1.5" fill="none" id="path48"></path>
  </g>
  <g class="bird b1" id="g50">
    <path d="M 0 0 Q 4 -6 8 0 M 8 0 Q 12 -6 16 0" stroke="#0f2a1a" stroke-width="2" fill="none" stroke-linecap="round" id="path49"></path>
  </g>
  <g class="bird b2" id="g51">
    <path d="M 0 0 Q 3 -5 6 0 M 6 0 Q 9 -5 12 0" stroke="#0f2a1a" stroke-width="1.8" fill="none" stroke-linecap="round" id="path50"></path>
  </g>
  <g class="bbq" id="g53" transform="translate(786.80519,31.836048)">
    <rect x="108" y="430" width="32" height="8" fill="#0f2a1a" id="rect51"></rect>
    <rect x="116" y="438" width="4" height="12" fill="#0f2a1a" id="rect52"></rect>
    <rect x="128" y="438" width="4" height="12" fill="#0f2a1a" id="rect53"></rect>
  </g>
  <g class="smoke" id="g55" style="display:inline" transform="translate(786.80519,31.836048)">
    <circle class="sm sm1" cx="124" cy="420" r="6" fill="#fffef5" opacity="0.85" id="circle53"></circle>
    <circle class="sm sm2" cx="124" cy="420" r="5" fill="#fffef5" opacity="0.7" id="circle54"></circle>
    <circle class="sm sm3" cx="124" cy="420" r="7" fill="#fffef5" opacity="0.6" id="circle55"></circle>
  </g>
  <ellipse style="fill:#8996b1;fill-opacity:1;stroke-width:0.859044" id="ellipse55" cx="93.173691" cy="440.79993" rx="182.90652" ry="35.351955"></ellipse>
  <ellipse style="fill:#5a6787;fill-opacity:1;stroke-width:0.62076" id="ellipse64" cx="78.248627" cy="434.98221" rx="143.51357" ry="23.526814"></ellipse>
  <ellipse style="fill:#88adff;fill-opacity:1;stroke-width:0.62076" id="path55" cx="78.248627" cy="438.70679" rx="143.51357" ry="23.526814"></ellipse>
  <rect style="fill:none;fill-opacity:1;stroke:#c90000;stroke-width:2.48304;stroke-dasharray:none;stroke-opacity:1" id="rect55" width="14.351343" height="93.636726" x="227.23543" y="343.00665" ry="0"></rect>
  <path style="fill:none;fill-opacity:1;stroke:#c90000;stroke-width:2.48304;stroke-dasharray:none;stroke-opacity:1" d="m 204.99942,340.654 38.46948,0 7.52857,7.52857 v 88.69609" id="path56" sodipodi-0.dtd:nodetypes="cccc"></path>
  <path style="fill:none;fill-opacity:1;stroke:#c90000;stroke-width:2.48304;stroke-dasharray:none;stroke-opacity:1" d="m 245.5863,355.58081 h 10.82234" id="path57"></path>
  <path style="fill:none;fill-opacity:1;stroke:#c90000;stroke-width:2.48304;stroke-dasharray:none;stroke-opacity:1" d="m 245.5863,367.99598 h 10.82234" id="path58"></path>
  <path style="fill:none;fill-opacity:1;stroke:#c90000;stroke-width:2.48304;stroke-dasharray:none;stroke-opacity:1" d="m 245.5863,380.41118 h 10.82234" id="path59"></path>
  <path style="fill:none;fill-opacity:1;stroke:#c90000;stroke-width:2.48304;stroke-dasharray:none;stroke-opacity:1" d="m 245.5863,392.82637 h 10.82234" id="path60"></path>
  <path style="fill:none;fill-opacity:1;stroke:#c90000;stroke-width:2.48304;stroke-dasharray:none;stroke-opacity:1" d="m 245.5863,405.24155 h 10.82234" id="path61"></path>
  <path style="fill:none;fill-opacity:1;stroke:#c90000;stroke-width:2.48304;stroke-dasharray:none;stroke-opacity:1" d="m 245.5863,417.65674 h 10.82234" id="path62"></path>
  <path style="fill:none;fill-opacity:1;stroke:#c90000;stroke-width:2.48304;stroke-dasharray:none;stroke-opacity:1" d="m 245.5863,430.07192 h 10.82234" id="path63"></path>
  <path style="fill:none;fill-opacity:1;stroke:#c90000;stroke-width:2.48304;stroke-dasharray:none;stroke-opacity:1" d="m 219.00101,340.654 c 0,0 2.27663,-11.76341 24.46789,-11.76341 13.01242,0 17.88038,5.86173 17.88038,9.41073 v 88.69609" id="path64" sodipodi-0.dtd:nodetypes="cssc"></path>
  <path style="fill:none;fill-opacity:1;stroke:#c90000;stroke-width:2;stroke-dasharray:none;stroke-opacity:1" d="m 227.23543,343.00665 14.85791,14.85792 -14.8825,14.88249 14.02302,14.02302 -13.92827,13.92828 14.40203,14.40202 -14.93436,8.62235 12.91527,12.91526" id="path65"></path>
  <path style="fill:none;fill-opacity:1;stroke:#ff8709;stroke-width:2;stroke-dasharray:none;stroke-opacity:1" d="M 217.43533,338.3506 H 141.24458" id="path66"></path>
  <g class="person p4" id="g41" transform="translate(-173.0864,-5.099943)">
    <circle cx="280" cy="432" r="8" fill="#0f2a1a" id="circle39"></circle>
    <rect x="274" y="438" width="12" height="14" rx="3" fill="#ffd36b" id="rect39"></rect>
    <line x1="274" y1="446" x2="266" y2="454" stroke="#0f2a1a" stroke-width="2.5" stroke-linecap="round" id="line40"></line>
    <line x1="286" y1="446" x2="294" y2="454" stroke="#0f2a1a" stroke-width="2.5" stroke-linecap="round" id="line41"></line>
  </g>
  <path style="fill:none;fill-opacity:1;stroke:#04008c;stroke-width:2;stroke-dasharray:none;stroke-opacity:1" d="M 360.5,467 V 436 H 406 v 33" id="path67"></path>
  <path style="fill:#26518c;fill-opacity:1;stroke:#04008c;stroke-width:2;stroke-dasharray:none;stroke-opacity:1" id="path68" sodipodi-0.dtd:type="arc" sodipodi-0.dtd:cx="383.25" sodipodi-0.dtd:cy="427.75" sodipodi-0.dtd:rx="24.25" sodipodi-0.dtd:ry="20.25" sodipodi-0.dtd:start="0" sodipodi-0.dtd:end="5.1337472" sodipodi-0.dtd:arc-type="slice" d="m 407.5,427.75 a 24.25,20.25 0 0 1 -17.37704,19.41966 24.25,20.25 0 0 1 -27.22708,-8.41178 24.25,20.25 0 0 1 1.94359,-24.18781 24.25,20.25 0 0 1 28.32879,-5.29889 L 383.25,427.75 Z" inkscape:label="barbecue"></path>
  <path style="fill:#0e1e34;fill-opacity:0.452028;stroke:none;stroke-width:1.44109;stroke-dasharray:1.44109, 4.32326;stroke-dashoffset:0;stroke-opacity:1" d="m 398.08233,370.69927 c -3.62244,-0.0566 -4.28049,-6.08384 -9.36707,-4.68354 -7.50288,2.06549 -9.23288,7.27469 -4.68354,12.96979 2.45376,3.07174 7.80165,-3.94435 6.84517,-1.80136 -1.85091,4.14692 -3.99396,7.25944 -0.72055,9.72735 2.83547,2.13772 6.19779,4.47114 9.36708,0.36027 1.77078,-2.29688 -2.51248,-5.33538 0.36027,-7.20544 3.02881,-1.97164 4.60152,0.81494 6.48489,0 7.78498,-3.36859 4.61087,-8.42972 2.16164,-11.88898 -2.2957,-3.2424 -2.44201,2.44343 -5.04381,2.16164 -2.5778,-0.27919 2.25699,-5.12492 -2.52191,-7.56572 -1.1941,-0.60988 -1.87256,-1.18706 -3.96299,0.72055 -3.01511,2.75141 3.69059,7.24617 1.08082,7.20544 z" id="path69" sodipodi-0.dtd:nodetypes="sssssssssssss"></path>
</svg>